<?xml version="1.0" encoding="UTF-8"?>
<svg id="Layer_5" data-name="Layer 5" xmlns="http://www.w3.org/2000/svg" xmlns:xlink="http://www.w3.org/1999/xlink" viewBox="0 0 512 512">
  <defs>
    <style>
      .cls-1 {
        clip-path: url(#clippath-1);
      }

      .cls-2, .cls-3, .cls-4, .cls-5 {
        fill-rule: evenodd;
      }

      .cls-2, .cls-6 {
        fill: #0098da;
      }

      .cls-3, .cls-7 {
        fill: #034e8f;
      }

      .cls-4 {
        fill: #0d62ad;
      }

      .cls-8 {
        clip-path: url(#clippath);
      }

      .cls-9 {
        fill: none;
      }

      .cls-5 {
        fill: #007fb5;
      }
    </style>
    <clipPath id="clippath">
      <rect class="cls-9" x="224.68" y="13.69" width="104.98" height="178.8"/>
    </clipPath>
    <clipPath id="clippath-1">
      <rect class="cls-9" x="256.99" y="13.69" width="72.68" height="119.58"/>
    </clipPath>
  </defs>
  <g>
    <path class="cls-4" d="m193.28,100.59c-7.92,13.97-10.39,29.06-6.31,45.5,9.6,38.64,52.58,73.52,91.34,54.29,21.39-10.6,29.84-36.58,15.14-56.7-8.05-11.03-20.94-20.32-35.04-29.15-18.14-11.04-44.55-28.65-41.82-52.94-10.48,11.39-17.61,24.49-9.32,39.09,6.36,11.21,18.33,21.47,33.44,31.22,6.48,4.77,12.78,9.74,17.34,16.35,12.88,18.63-1.89,31.24-20.8,29.1-18.73-2.12-27.87-11.26-31.96-24.09,7.29,5.89,14.83,11.35,23.71,13.67,14.65,3.84,18.54-5.24,14.33-15.24-2.23-5.28-6.33-10.27-11.3-14.26-15.44-12.4-24.96-20.54-38.76-36.83"/>
    <path class="cls-3" d="m286.73,194.88c14.91-12.49,19.3-34,6.72-51.2-8.05-11.03-20.95-20.32-35.05-29.15-18.14-11.04-44.54-28.65-41.82-52.94-6.2,17.84-3.21,29.96,10.03,42.68,16.35,15.71,38.19,27.17,52.92,44.12,10.58,12.18,16.15,26.8,7.19,46.49"/>
    <path class="cls-3" d="m244.9,159.6c.15-2.39-.39-5.12-1.58-7.92-2.22-5.28-6.33-10.27-11.29-14.26-15.45-12.39-24.96-20.54-38.77-36.82,13.76,34.21,40.85,34.66,51.64,59"/>
    <g class="cls-8">
      <path class="cls-2" d="m258.66,13.69c-17.62,13.52-39.5,32.1-29.18,54.02,8.53,18.13,35.74,34.99,51.23,47.53,27.85,22.52,49.09,40.56,21.03,75.88,23.07-21.86,32.49-47.09,10.28-73.35-6.14-7.26-13.45-14.04-21.83-20.39-15.81-11.98-38.69-25.27-38.83-47.68,13.55,20.84,25.49,26.23,43.85,39.57,17.05,12.38,28.29,26.71,34.01,42.86-1.5-18.51-8.58-35.16-19.85-50.41-8.25-11.17-18.72-21.5-28.57-32.2-11.08-12.03-17.15-19.55-22.13-35.83"/>
    </g>
    <g class="cls-1">
      <path class="cls-5" d="m326.18,124.79c1.15,2.41,2.16,4.85,3.04,7.33-1.5-18.51-8.58-35.16-19.85-50.41-8.25-11.17-18.72-21.5-28.57-32.2-11.08-12.02-17.15-19.55-22.13-35.83.08,11.7,2.68,21.97,8.12,32.26,6.56,12.41,14.99,18.64,26.14,29.07,5.37,5.03,10.39,10.38,15.01,16.11,7.49,9.28,16.06,22.03,18.25,33.66Z"/>
    </g>
    <path class="cls-5" d="m230.61,42.35c-4.16,7.8-5.4,16.29-1.15,25.35,8.53,18.13,35.75,34.99,51.24,47.53,7.96,6.44,15.37,12.51,21.25,18.72-17.07-23.65-45.13-37.12-60.96-59.55-6.73-9.55-10.8-20.21-10.39-32.05"/>
  </g>
  <g>
    <path class="cls-7" d="m7.78,191.25l4.73,150.74h71.92v-42.2l-51.46,9.68,5.16-110.89-30.36-7.33Z"/>
    <path class="cls-7" d="m98.43,340.05h29.06l4.31-78.17-35.75,1.72,2.38,76.45Zm-4.52-101.42l32.72,1.28v-33.81l-27.56-8.39-5.16,40.91Z"/>
    <path class="cls-7" d="m241.84,324.33l-18.52-15.5s12.7-5.81,13.79-24.33c1.07-18.53-2.38-26.49-9.26-34.03-10.77-11.84-33.81-11.84-33.81-11.84,0,0-31.44-.86-42,10.12-10.34,10.77-11.41,29.72-10.98,43.28.22,13.35,1.93,31.23,5.38,38.34,2.59,5.16,10.34,10.76,33.81,11.41,24.76.64,22.4-15.29,22.4-15.29l17.66,15.5,21.54-17.66Zm-29.93-35.96c-1.29,3.23-5.6,3.66-5.6,3.66l-8.61-12.7-16.58,12.06,9.04,12.49-1.29,1.07c-.86.64-2.37,1.5-3.44,1.72-3.66.86-11.63,2.37-16.58,1.29-7.32-1.95-13.56-9.47-14-17.23-.43-9.25,1.07-19.16,5.16-23.47,3.88-4.3,9.7-9.91,23.04-10.12,13.14-.22,21.54-.65,26.49,3.23,7.54,6.25,4.31,22.83,2.38,27.99Z"/>
    <path class="cls-7" d="m256.69,247.02c-2.37.43-4.3,2.59-4.52,4.95-1.07,15.94-3.44,71.06,7.54,79.89,12.7,10.34,18.74,10.77,37.26,10.77s35.96-.43,45.87-9.47c9.91-9.04,15.07-80.33,2.59-91.3-9.47-8.61-25.19,3.66-31.66,9.47-.86.64-1.71,2.37-1.71,3.66,0,.64.21,1.72.64,2.37,4.52,8.83,16.79,32.73,18.09,43.07,1.51,12.49-5.59,17.22-24.33,16.58-18.95-.65-22.83.43-26.06-6.25-3.45-6.89,11.2-40.27,8.18-65.9-.21-1.5-1.5-2.58-3.01-2.58h-.43l-28.43,4.73Z"/>
    <path class="cls-7" d="m366.73,340.05h29.06l4.31-78.17-35.75,1.72,2.38,76.45Zm-4.52-101.42l32.72,1.28v-33.81l-27.56-8.39-5.16,40.91Z"/>
    <path class="cls-7" d="m466.21,195.77l1.72,43.93s-17.44,6.25-26.7,8.61c-9.04,2.16-21.75,9.47-28.42,16.15-3.45,3.66-4.31,17.22-3.45,32.73.86,15.5,6.46,33.6,11.63,39.4,5.38,6.04,43.07,5.38,43.07,5.38l33.38-1.5c4.95-1.07,9.04-6.03,9.04-10.98,0,0,0-.22-.22-.22l1.51-138.24-41.57,4.73Zm27.14,113.7c-.22,12.06-11.63,17.88-16.8,18.09-6.46,0-15.5-3.87-20.24-8.18-5.81-6.03-3.87-23.04-3.87-23.04,1.93-11.41,7.54-35.75,16.58-35.75,6.46,0,17.66,11.85,20.88,20.03s3.88,16.79,3.45,28.85Z"/>
  </g>
  <g>
    <g>
      <path class="cls-6" d="m106.28,483.43c0-2.91.32-5.98.97-9.53l13.25-75.59-10.34-6.46.32-1.94,29.72-12.92,2.1,1.13-16.31,92.55c-.48,2.75-.81,4.85-.81,6.62,0,3.88,1.62,5.65,6.3,5.65,2.42,0,4.04-.32,6.14-.97l1.62,4.2c-4.68,3.88-12.6,8.72-20.84,8.72-7.27,0-12.11-3.55-12.11-11.47Z"/>
      <path class="cls-6" d="m195.27,477.94l1.62,4.2c-8.4,8.4-18.09,12.76-29.24,12.76-12.92,0-22.13-8.4-22.13-26.17,0-28.1,16.64-45.71,37.96-45.71,10.66,0,18.09,5.33,18.09,14.38,0,11.79-9.05,21.32-36.99,28.59v1.45c0,10.5,4.04,15.51,11.95,15.51,6.46,0,12.28-1.78,18.74-5.01Zm-30.2-19.22c13.25-4.85,19.87-13.41,19.87-22.13,0-3.88-1.94-5.49-4.36-5.49-5.33,0-13.41,9.37-15.51,27.62Z"/>
      <path class="cls-6" d="m277.81,486.17c-4.85,3.88-12.76,8.72-20.19,8.72-7.91,0-12.92-3.55-12.92-11.47v-1.78c-6.46,7.91-13.24,13.24-20.67,13.24-11.31,0-18.09-9.05-18.09-24.71,0-27.14,16.31-47.16,36.18-47.16,5.65,0,10.66,1.78,14.7,4.68l13.89-5.82,2.1,1.13-8.4,47.65c-.48,2.75-.81,4.85-.81,6.62,0,3.88,1.62,5.65,6.46,5.65,2.42,0,4.04-.32,6.14-.97l1.62,4.2Zm-32.3-11.63c.16-.16.16-.48.16-.65l6.3-35.7c-2.1-4.52-5.01-6.62-8.72-6.62-10.82,0-18.09,15.51-18.09,36.02,0,9.85,3.07,13.73,7.91,13.73,4.2,0,7.75-2.42,12.44-6.78Z"/>
      <path class="cls-6" d="m352.59,481.98l1.62,4.2c-4.68,3.88-12.6,8.72-20.84,8.72-7.27,0-12.11-3.55-12.11-11.47v-1.78c-6.62,7.91-13.73,13.24-21.16,13.24-11.31,0-18.25-9.05-18.25-24.71,0-27.14,16.48-47.16,36.34-47.16,4.52,0,8.72,1.13,12.44,3.07l4.85-27.78-10.34-6.46.32-1.94,29.72-12.92,2.1,1.13-16.31,92.55c-.48,2.75-.81,4.85-.81,6.62,0,3.88,1.62,5.65,6.3,5.65,2.42,0,4.04-.32,6.14-.97Zm-30.53-7.43c.16-.32.16-.48.16-.65l6.3-35.7c-2.26-4.52-5.49-6.62-9.21-6.62-10.82,0-18.25,15.51-18.25,36.02,0,9.85,3.23,13.73,8.08,13.73,4.2,0,8.08-2.42,12.92-6.78Z"/>
      <path class="cls-6" d="m360.01,487.79l4.36-23.1h1.94l7.27,16.96c3.23,3.88,6.46,5.17,10.34,5.17,4.85,0,7.91-2.91,7.91-7.43s-2.26-8.24-11.14-14.7c-9.69-7.11-14.05-13.41-14.05-20.84,0-11.47,8.88-20.84,24.23-20.84,7.43,0,14.38,2.26,20.67,5.82l-4.85,21.97h-1.94l-7.43-15.02c-2.75-3.07-5.17-4.52-8.4-4.52-3.55,0-6.46,2.59-6.46,6.78,0,5.01,4.85,8.88,13.24,15.02,8.88,6.62,12.44,12.6,12.44,20.35,0,12.44-10.66,21.48-25.68,21.48-7.91,0-15.02-2.26-22.45-7.11Z"/>
    </g>
    <g>
      <path class="cls-6" d="m108.28,485.43c0-2.91.32-5.98.97-9.53l13.25-75.59-10.34-6.46.32-1.94,29.72-12.92,2.1,1.13-16.31,92.55c-.48,2.75-.81,4.85-.81,6.62,0,3.88,1.62,5.65,6.3,5.65,2.42,0,4.04-.32,6.14-.97l1.62,4.2c-4.68,3.88-12.6,8.72-20.84,8.72-7.27,0-12.11-3.55-12.11-11.47Z"/>
      <path class="cls-6" d="m197.27,479.94l1.62,4.2c-8.4,8.4-18.09,12.76-29.24,12.76-12.92,0-22.13-8.4-22.13-26.17,0-28.1,16.64-45.71,37.96-45.71,10.66,0,18.09,5.33,18.09,14.38,0,11.79-9.05,21.32-36.99,28.59v1.45c0,10.5,4.04,15.51,11.95,15.51,6.46,0,12.28-1.78,18.74-5.01Zm-30.2-19.22c13.25-4.85,19.87-13.41,19.87-22.13,0-3.88-1.94-5.49-4.36-5.49-5.33,0-13.41,9.37-15.51,27.62Z"/>
      <path class="cls-6" d="m279.81,488.17c-4.85,3.88-12.76,8.72-20.19,8.72-7.91,0-12.92-3.55-12.92-11.47v-1.78c-6.46,7.91-13.24,13.24-20.67,13.24-11.31,0-18.09-9.05-18.09-24.71,0-27.14,16.31-47.16,36.18-47.16,5.65,0,10.66,1.78,14.7,4.68l13.89-5.82,2.1,1.13-8.4,47.65c-.48,2.75-.81,4.85-.81,6.62,0,3.88,1.62,5.65,6.46,5.65,2.42,0,4.04-.32,6.14-.97l1.62,4.2Zm-32.3-11.63c.16-.16.16-.48.16-.65l6.3-35.7c-2.1-4.52-5.01-6.62-8.72-6.62-10.82,0-18.09,15.51-18.09,36.02,0,9.85,3.07,13.73,7.91,13.73,4.2,0,7.75-2.42,12.44-6.78Z"/>
      <path class="cls-6" d="m354.59,483.98l1.62,4.2c-4.68,3.88-12.6,8.72-20.84,8.72-7.27,0-12.11-3.55-12.11-11.47v-1.78c-6.62,7.91-13.73,13.24-21.16,13.24-11.31,0-18.25-9.05-18.25-24.71,0-27.14,16.48-47.16,36.34-47.16,4.52,0,8.72,1.13,12.44,3.07l4.85-27.78-10.34-6.46.32-1.94,29.72-12.92,2.1,1.13-16.31,92.55c-.48,2.75-.81,4.85-.81,6.62,0,3.88,1.62,5.65,6.3,5.65,2.42,0,4.04-.32,6.14-.97Zm-30.53-7.43c.16-.32.16-.48.16-.65l6.3-35.7c-2.26-4.52-5.49-6.62-9.21-6.62-10.82,0-18.25,15.51-18.25,36.02,0,9.85,3.23,13.73,8.08,13.73,4.2,0,8.08-2.42,12.92-6.78Z"/>
      <path class="cls-6" d="m362.01,489.79l4.36-23.1h1.94l7.27,16.96c3.23,3.88,6.46,5.17,10.34,5.17,4.85,0,7.91-2.91,7.91-7.43s-2.26-8.24-11.14-14.7c-9.69-7.11-14.05-13.41-14.05-20.84,0-11.47,8.88-20.84,24.23-20.84,7.43,0,14.38,2.26,20.67,5.82l-4.85,21.97h-1.94l-7.43-15.02c-2.75-3.07-5.17-4.52-8.4-4.52-3.55,0-6.46,2.59-6.46,6.78,0,5.01,4.85,8.88,13.24,15.02,8.88,6.62,12.44,12.6,12.44,20.35,0,12.44-10.66,21.48-25.68,21.48-7.91,0-15.02-2.26-22.45-7.11Z"/>
    </g>
    <g>
      <path class="cls-6" d="m106.28,483.43c0-2.91.32-5.98.97-9.53l13.25-75.59-10.34-6.46.32-1.94,29.72-12.92,2.1,1.13-16.31,92.55c-.48,2.75-.81,4.85-.81,6.62,0,3.88,1.62,5.65,6.3,5.65,2.42,0,4.04-.32,6.14-.97l1.62,4.2c-4.68,3.88-12.6,8.72-20.84,8.72-7.27,0-12.11-3.55-12.11-11.47Z"/>
      <path class="cls-6" d="m195.27,477.94l1.62,4.2c-8.4,8.4-18.09,12.76-29.24,12.76-12.92,0-22.13-8.4-22.13-26.17,0-28.1,16.64-45.71,37.96-45.71,10.66,0,18.09,5.33,18.09,14.38,0,11.79-9.05,21.32-36.99,28.59v1.45c0,10.5,4.04,15.51,11.95,15.51,6.46,0,12.28-1.78,18.74-5.01Zm-30.2-19.22c13.25-4.85,19.87-13.41,19.87-22.13,0-3.88-1.94-5.49-4.36-5.49-5.33,0-13.41,9.37-15.51,27.62Z"/>
      <path class="cls-6" d="m277.81,486.17c-4.85,3.88-12.76,8.72-20.19,8.72-7.91,0-12.92-3.55-12.92-11.47v-1.78c-6.46,7.91-13.24,13.24-20.67,13.24-11.31,0-18.09-9.05-18.09-24.71,0-27.14,16.31-47.16,36.18-47.16,5.65,0,10.66,1.78,14.7,4.68l13.89-5.82,2.1,1.13-8.4,47.65c-.48,2.75-.81,4.85-.81,6.62,0,3.88,1.62,5.65,6.46,5.65,2.42,0,4.04-.32,6.14-.97l1.62,4.2Zm-32.3-11.63c.16-.16.16-.48.16-.65l6.3-35.7c-2.1-4.52-5.01-6.62-8.72-6.62-10.82,0-18.09,15.51-18.09,36.02,0,9.85,3.07,13.73,7.91,13.73,4.2,0,7.75-2.42,12.44-6.78Z"/>
      <path class="cls-6" d="m352.59,481.98l1.62,4.2c-4.68,3.88-12.6,8.72-20.84,8.72-7.27,0-12.11-3.55-12.11-11.47v-1.78c-6.62,7.91-13.73,13.24-21.16,13.24-11.31,0-18.25-9.05-18.25-24.71,0-27.14,16.48-47.16,36.34-47.16,4.52,0,8.72,1.13,12.44,3.07l4.85-27.78-10.34-6.46.32-1.94,29.72-12.92,2.1,1.13-16.31,92.55c-.48,2.75-.81,4.85-.81,6.62,0,3.88,1.62,5.65,6.3,5.65,2.42,0,4.04-.32,6.14-.97Zm-30.53-7.43c.16-.32.16-.48.16-.65l6.3-35.7c-2.26-4.52-5.49-6.62-9.21-6.62-10.82,0-18.25,15.51-18.25,36.02,0,9.85,3.23,13.73,8.08,13.73,4.2,0,8.08-2.42,12.92-6.78Z"/>
      <path class="cls-6" d="m360.01,487.79l4.36-23.1h1.94l7.27,16.96c3.23,3.88,6.46,5.17,10.34,5.17,4.85,0,7.91-2.91,7.91-7.43s-2.26-8.24-11.14-14.7c-9.69-7.11-14.05-13.41-14.05-20.84,0-11.47,8.88-20.84,24.23-20.84,7.43,0,14.38,2.26,20.67,5.82l-4.85,21.97h-1.94l-7.43-15.02c-2.75-3.07-5.17-4.52-8.4-4.52-3.55,0-6.46,2.59-6.46,6.78,0,5.01,4.85,8.88,13.24,15.02,8.88,6.62,12.44,12.6,12.44,20.35,0,12.44-10.66,21.48-25.68,21.48-7.91,0-15.02-2.26-22.45-7.11Z"/>
    </g>
  </g>
</svg>