<?xml version="1.0" encoding="UTF-8"?>
<svg id="Layer_3" data-name="Layer 3" xmlns="http://www.w3.org/2000/svg" xmlns:xlink="http://www.w3.org/1999/xlink" viewBox="0 0 1515.22 389">
  <defs>
    <style>
      .cls-1 {
        letter-spacing: 0em;
      }

      .cls-2, .cls-3, .cls-4 {
        fill: #0d62ad;
      }

      .cls-5 {
        clip-path: url(#clippath-2);
      }

      .cls-6 {
        fill: #063d66;
      }

      .cls-7 {
        clip-path: url(#clippath-1);
      }

      .cls-8, .cls-9, .cls-3, .cls-10 {
        fill-rule: evenodd;
      }

      .cls-8, .cls-11 {
        fill: #0098da;
      }

      .cls-9, .cls-12 {
        fill: #034e8f;
      }

      .cls-11, .cls-4 {
        font-family: Bely-BoldItalic, Bely;
        font-size: 231.45px;
        font-style: italic;
        font-weight: 700;
      }

      .cls-13 {
        clip-path: url(#clippath);
      }

      .cls-14 {
        fill: none;
      }

      .cls-15 {
        fill: #b1deef;
      }

      .cls-16 {
        letter-spacing: 0em;
      }

      .cls-10 {
        fill: #007fb5;
      }
    </style>
    <clipPath id="clippath">
      <rect class="cls-14" x="2.61" y=".41" width="388.17" height="388.17"/>
    </clipPath>
    <clipPath id="clippath-1">
      <rect class="cls-14" x="144.58" y="41.22" width="167.5" height="285.27"/>
    </clipPath>
    <clipPath id="clippath-2">
      <rect class="cls-14" x="196.12" y="41.22" width="115.96" height="190.78"/>
    </clipPath>
  </defs>
  <g class="cls-13">
    <path class="cls-15" d="m196.7.41C89.5.41,2.61,87.31,2.61,194.5s86.89,194.09,194.09,194.09,194.09-86.9,194.09-194.09S303.88.41,196.7.41"/>
  </g>
  <g>
    <path class="cls-3" d="m94.47,179.88c-12.63,22.3-16.58,46.37-10.07,72.59,15.32,61.65,83.88,117.3,145.72,86.62,34.12-16.91,47.61-58.37,24.16-90.46-12.85-17.6-33.4-32.41-55.9-46.5-28.94-17.62-71.08-45.72-66.72-84.47-16.73,18.17-28.1,39.07-14.86,62.36,10.15,17.88,29.24,34.26,53.35,49.81,10.33,7.62,20.38,15.54,27.66,26.09,20.55,29.73-3.02,49.84-33.18,46.42-29.88-3.39-44.46-17.97-50.98-38.44,11.63,9.39,23.65,18.1,37.83,21.81,23.37,6.12,29.58-8.35,22.87-24.31-3.56-8.42-10.1-16.39-18.03-22.75-24.63-19.78-39.83-32.76-61.84-58.77"/>
    <path class="cls-9" d="m243.58,330.31c23.79-19.93,30.78-54.24,10.72-81.69-12.85-17.6-33.42-32.41-55.92-46.5-28.94-17.62-71.07-45.72-66.72-84.47-9.9,28.47-5.12,47.8,16,68.1,26.09,25.06,60.93,43.35,84.44,70.39,16.88,19.43,25.77,42.76,11.48,74.17"/>
    <path class="cls-9" d="m176.85,274.01c.23-3.81-.62-8.17-2.52-12.63-3.54-8.42-10.1-16.39-18.02-22.75-24.64-19.76-39.83-32.76-61.86-58.75,21.96,54.57,65.18,55.3,82.39,94.13"/>
    <g class="cls-7">
      <path class="cls-8" d="m198.79,41.22c-28.12,21.57-63.01,51.22-46.55,86.18,13.61,28.92,57.02,55.83,81.74,75.83,44.44,35.94,78.31,64.71,33.55,121.06,36.81-34.88,51.84-75.13,16.41-117.03-9.8-11.58-21.46-22.4-34.83-32.53-25.23-19.11-61.72-40.31-61.96-76.06,21.62,33.25,40.67,41.84,69.96,63.13,27.19,19.75,45.13,42.61,54.26,68.38-2.4-29.53-13.69-56.1-31.67-80.43-13.17-17.82-29.86-34.31-45.58-51.37-17.68-19.19-27.36-31.19-35.31-57.16"/>
    </g>
    <g class="cls-5">
      <path class="cls-10" d="m306.51,218.48c1.83,3.84,3.44,7.73,4.85,11.69-2.4-29.53-13.69-56.1-31.67-80.43-13.17-17.82-29.86-34.31-45.58-51.37-17.68-19.18-27.36-31.19-35.31-57.16.13,18.67,4.28,35.05,12.95,51.47,10.47,19.8,23.92,29.74,41.71,46.39,8.57,8.02,16.58,16.56,23.94,25.7,11.94,14.81,25.62,35.15,29.12,53.7Z"/>
    </g>
    <path class="cls-10" d="m154.05,86.95c-6.64,12.45-8.62,25.99-1.83,40.45,13.61,28.92,57.04,55.83,81.75,75.83,12.7,10.27,24.53,19.96,33.91,29.86-27.23-37.73-72-59.22-97.25-95.01-10.74-15.23-17.23-32.24-16.58-51.13"/>
  </g>
  <g>
    <g>
      <g>
        <path class="cls-12" d="m458.31,92.09l5.44,173.24h82.66v-48.5l-59.15,11.13,5.93-127.45-34.89-8.42Z"/>
        <path class="cls-12" d="m562.5,263.11h33.4l4.96-89.84-41.09,1.98,2.73,87.86Zm-5.2-116.56l37.61,1.47v-38.85l-31.68-9.64-5.93,47.02Z"/>
        <path class="cls-12" d="m727.32,245.05l-21.28-17.81s14.6-6.68,15.84-27.97c1.23-21.29-2.73-30.44-10.65-39.11-12.38-13.61-38.85-13.61-38.85-13.61,0,0-36.14-.99-48.27,11.63-11.88,12.38-13.11,34.15-12.62,49.74.25,15.35,2.22,35.89,6.19,44.06,2.97,5.93,11.88,12.36,38.85,13.11,28.46.74,25.74-17.57,25.74-17.57l20.29,17.81,24.75-20.29Zm-34.4-41.33c-1.49,3.71-6.44,4.21-6.44,4.21l-9.9-14.6-19.06,13.86,10.39,14.36-1.49,1.23c-.99.74-2.72,1.73-3.95,1.98-4.21.99-13.37,2.72-19.06,1.49-8.41-2.24-15.59-10.89-16.09-19.81-.5-10.64,1.23-22.02,5.93-26.97,4.46-4.94,11.14-11.38,26.48-11.63,15.11-.25,24.75-.75,30.44,3.71,8.67,7.18,4.96,26.24,2.73,32.17Z"/>
        <path class="cls-12" d="m744.39,156.19c-2.72.5-4.94,2.97-5.2,5.69-1.23,18.32-3.95,81.67,8.67,91.82,14.6,11.88,21.54,12.38,42.82,12.38s41.33-.5,52.72-10.89c11.38-10.39,17.32-92.32,2.97-104.94-10.89-9.9-28.96,4.21-36.39,10.89-.99.74-1.97,2.72-1.97,4.21,0,.74.24,1.98.74,2.72,5.2,10.15,19.3,37.62,20.79,49.5,1.74,14.36-6.43,19.8-27.97,19.06-21.78-.75-26.24.5-29.95-7.18-3.96-7.92,12.87-46.29,9.4-75.74-.24-1.73-1.73-2.96-3.46-2.96h-.5l-32.68,5.44Z"/>
        <path class="cls-12" d="m870.86,263.11h33.4l4.96-89.84-41.09,1.98,2.73,87.86Zm-5.2-116.56l37.61,1.47v-38.85l-31.68-9.64-5.93,47.02Z"/>
        <path class="cls-12" d="m985.19,97.29l1.98,50.49s-20.05,7.18-30.68,9.9c-10.39,2.48-24.99,10.89-32.67,18.56-3.96,4.21-4.96,19.8-3.96,37.62.99,17.81,7.42,38.61,13.37,45.28,6.19,6.94,49.5,6.19,49.5,6.19l38.36-1.73c5.69-1.23,10.39-6.92,10.39-12.62,0,0,0-.25-.25-.25l1.74-158.89-47.77,5.44Zm31.19,130.68c-.25,13.86-13.37,20.55-19.31,20.79-7.42,0-17.81-4.45-23.26-9.4-6.68-6.92-4.45-26.48-4.45-26.48,2.22-13.11,8.67-41.09,19.06-41.09,7.42,0,20.29,13.62,24,23.02,3.71,9.4,4.46,19.3,3.96,33.16Z"/>
      </g>
      <g>
        <path class="cls-6" d="m460.31,94.09l5.44,173.24h82.66v-48.5l-59.15,11.13,5.93-127.45-34.89-8.42Z"/>
        <path class="cls-6" d="m564.5,265.11h33.4l4.96-89.84-41.09,1.98,2.73,87.86Zm-5.2-116.56l37.61,1.47v-38.85l-31.68-9.64-5.93,47.02Z"/>
        <path class="cls-6" d="m729.32,247.05l-21.28-17.81s14.6-6.68,15.84-27.97c1.23-21.29-2.73-30.44-10.65-39.11-12.38-13.61-38.85-13.61-38.85-13.61,0,0-36.14-.99-48.27,11.63-11.88,12.38-13.11,34.15-12.62,49.74.25,15.35,2.22,35.89,6.19,44.06,2.97,5.93,11.88,12.36,38.85,13.11,28.46.74,25.74-17.57,25.74-17.57l20.29,17.81,24.75-20.29Zm-34.4-41.33c-1.49,3.71-6.44,4.21-6.44,4.21l-9.9-14.6-19.06,13.86,10.39,14.36-1.49,1.23c-.99.74-2.72,1.73-3.95,1.98-4.21.99-13.37,2.72-19.06,1.49-8.41-2.24-15.59-10.89-16.09-19.81-.5-10.64,1.23-22.02,5.93-26.97,4.46-4.94,11.14-11.38,26.48-11.63,15.11-.25,24.75-.75,30.44,3.71,8.67,7.18,4.96,26.24,2.73,32.17Z"/>
        <path class="cls-6" d="m746.39,158.19c-2.72.5-4.94,2.97-5.2,5.69-1.23,18.32-3.95,81.67,8.67,91.82,14.6,11.88,21.54,12.38,42.82,12.38s41.33-.5,52.72-10.89c11.38-10.39,17.32-92.32,2.97-104.94-10.89-9.9-28.96,4.21-36.39,10.89-.99.74-1.97,2.72-1.97,4.21,0,.74.24,1.98.74,2.72,5.2,10.15,19.3,37.62,20.79,49.5,1.74,14.36-6.43,19.8-27.97,19.06-21.78-.75-26.24.5-29.95-7.18-3.96-7.92,12.87-46.29,9.4-75.74-.24-1.73-1.73-2.96-3.46-2.96h-.5l-32.68,5.44Z"/>
        <path class="cls-6" d="m872.86,265.11h33.4l4.96-89.84-41.09,1.98,2.73,87.86Zm-5.2-116.56l37.61,1.47v-38.85l-31.68-9.64-5.93,47.02Z"/>
        <path class="cls-6" d="m987.19,99.29l1.98,50.49s-20.05,7.18-30.68,9.9c-10.39,2.48-24.99,10.89-32.67,18.56-3.96,4.21-4.96,19.8-3.96,37.62.99,17.81,7.42,38.61,13.37,45.28,6.19,6.94,49.5,6.19,49.5,6.19l38.36-1.73c5.69-1.23,10.39-6.92,10.39-12.62,0,0,0-.25-.25-.25l1.74-158.89-47.77,5.44Zm31.19,130.68c-.25,13.86-13.37,20.55-19.31,20.79-7.42,0-17.81-4.45-23.26-9.4-6.68-6.92-4.45-26.48-4.45-26.48,2.22-13.11,8.67-41.09,19.06-41.09,7.42,0,20.29,13.62,24,23.02,3.71,9.4,4.46,19.3,3.96,33.16Z"/>
      </g>
      <g>
        <path class="cls-2" d="m458.31,92.09l5.44,173.24h82.66v-48.5l-59.15,11.13,5.93-127.45-34.89-8.42Z"/>
        <path class="cls-2" d="m562.5,263.11h33.4l4.96-89.84-41.09,1.98,2.73,87.86Zm-5.2-116.56l37.61,1.47v-38.85l-31.68-9.64-5.93,47.02Z"/>
        <path class="cls-2" d="m727.32,245.05l-21.28-17.81s14.6-6.68,15.84-27.97c1.23-21.29-2.73-30.44-10.65-39.11-12.38-13.61-38.85-13.61-38.85-13.61,0,0-36.14-.99-48.27,11.63-11.88,12.38-13.11,34.15-12.62,49.74.25,15.35,2.22,35.89,6.19,44.06,2.97,5.93,11.88,12.36,38.85,13.11,28.46.74,25.74-17.57,25.74-17.57l20.29,17.81,24.75-20.29Zm-34.4-41.33c-1.49,3.71-6.44,4.21-6.44,4.21l-9.9-14.6-19.06,13.86,10.39,14.36-1.49,1.23c-.99.74-2.72,1.73-3.95,1.98-4.21.99-13.37,2.72-19.06,1.49-8.41-2.24-15.59-10.89-16.09-19.81-.5-10.64,1.23-22.02,5.93-26.97,4.46-4.94,11.14-11.38,26.48-11.63,15.11-.25,24.75-.75,30.44,3.71,8.67,7.18,4.96,26.24,2.73,32.17Z"/>
        <path class="cls-2" d="m744.39,156.19c-2.72.5-4.94,2.97-5.2,5.69-1.23,18.32-3.95,81.67,8.67,91.82,14.6,11.88,21.54,12.38,42.82,12.38s41.33-.5,52.72-10.89c11.38-10.39,17.32-92.32,2.97-104.94-10.89-9.9-28.96,4.21-36.39,10.89-.99.74-1.97,2.72-1.97,4.21,0,.74.24,1.98.74,2.72,5.2,10.15,19.3,37.62,20.79,49.5,1.74,14.36-6.43,19.8-27.97,19.06-21.78-.75-26.24.5-29.95-7.18-3.96-7.92,12.87-46.29,9.4-75.74-.24-1.73-1.73-2.96-3.46-2.96h-.5l-32.68,5.44Z"/>
        <path class="cls-2" d="m870.86,263.11h33.4l4.96-89.84-41.09,1.98,2.73,87.86Zm-5.2-116.56l37.61,1.47v-38.85l-31.68-9.64-5.93,47.02Z"/>
        <path class="cls-2" d="m985.19,97.29l1.98,50.49s-20.05,7.18-30.68,9.9c-10.39,2.48-24.99,10.89-32.67,18.56-3.96,4.21-4.96,19.8-3.96,37.62.99,17.81,7.42,38.61,13.37,45.28,6.19,6.94,49.5,6.19,49.5,6.19l38.36-1.73c5.69-1.23,10.39-6.92,10.39-12.62,0,0,0-.25-.25-.25l1.74-158.89-47.77,5.44Zm31.19,130.68c-.25,13.86-13.37,20.55-19.31,20.79-7.42,0-17.81-4.45-23.26-9.4-6.68-6.92-4.45-26.48-4.45-26.48,2.22-13.11,8.67-41.09,19.06-41.09,7.42,0,20.29,13.62,24,23.02,3.71,9.4,4.46,19.3,3.96,33.16Z"/>
      </g>
    </g>
    <g>
      <text class="cls-11" transform="translate(1062.21 263.47)"><tspan x="0" y="0">l</tspan><tspan class="cls-16" x="60.64" y="0">ea</tspan><tspan class="cls-1" x="256.22" y="0">ds</tspan></text>
      <text class="cls-4" transform="translate(1064.21 265.47)"><tspan x="0" y="0">l</tspan><tspan class="cls-16" x="60.64" y="0">ea</tspan><tspan class="cls-1" x="256.22" y="0">ds</tspan></text>
      <text class="cls-11" transform="translate(1062.21 263.47)"><tspan x="0" y="0">l</tspan><tspan class="cls-16" x="60.64" y="0">ea</tspan><tspan class="cls-1" x="256.22" y="0">ds</tspan></text>
    </g>
  </g>
</svg>