<?xml version="1.0" encoding="UTF-8"?>
<svg id="Layer_4" data-name="Layer 4" xmlns="http://www.w3.org/2000/svg" xmlns:xlink="http://www.w3.org/1999/xlink" viewBox="0 0 512 512">
  <defs>
    <style>
      .cls-1 {
        font-family: Bely-BoldItalic, Bely;
        font-size: 104.88px;
        font-style: italic;
        font-weight: 700;
      }

      .cls-1, .cls-2 {
        fill: #0098da;
      }

      .cls-3 {
        letter-spacing: 0em;
      }

      .cls-4 {
        clip-path: url(#clippath-2);
      }

      .cls-5 {
        clip-path: url(#clippath-1);
      }

      .cls-2, .cls-6, .cls-7, .cls-8 {
        fill-rule: evenodd;
      }

      .cls-6, .cls-9 {
        fill: #034e8f;
      }

      .cls-7 {
        fill: #0d62ad;
      }

      .cls-10 {
        clip-path: url(#clippath);
      }

      .cls-11 {
        fill: none;
      }

      .cls-12 {
        fill: #b1deef;
      }

      .cls-8 {
        fill: #007fb5;
      }
    </style>
    <clipPath id="clippath">
      <rect class="cls-11" x="1.44" y="1" width="510" height="510"/>
    </clipPath>
    <clipPath id="clippath-1">
      <rect class="cls-11" x="234.45" y="86.16" width="68.17" height="116.11"/>
    </clipPath>
    <clipPath id="clippath-2">
      <rect class="cls-11" x="255.43" y="86.16" width="47.2" height="77.65"/>
    </clipPath>
  </defs>
  <g class="cls-10">
    <path class="cls-12" d="m256.44,1C115.6,1,1.44,115.16,1.44,256s114.16,255,255,255,255-114.17,255-255S397.27,1,256.44,1"/>
  </g>
  <g>
    <g>
      <path class="cls-7" d="m214.06,142.6c-5.14,9.07-6.75,18.87-4.1,29.55,6.23,25.09,34.14,47.74,59.31,35.26,13.89-6.88,19.38-23.76,9.83-36.82-5.23-7.16-13.6-13.19-22.75-18.93-11.78-7.17-28.93-18.61-27.16-34.38-6.81,7.4-11.44,15.9-6.05,25.38,4.13,7.28,11.9,13.94,21.71,20.27,4.21,3.1,8.3,6.32,11.26,10.62,8.36,12.1-1.23,20.29-13.51,18.89-12.16-1.38-18.1-7.31-20.75-15.64,4.73,3.82,9.63,7.37,15.4,8.88,9.51,2.49,12.04-3.4,9.31-9.89-1.45-3.43-4.11-6.67-7.34-9.26-10.02-8.05-16.21-13.34-25.17-23.92"/>
      <path class="cls-6" d="m274.75,203.83c9.68-8.11,12.53-22.08,4.36-33.25-5.23-7.16-13.6-13.19-22.76-18.93-11.78-7.17-28.93-18.61-27.16-34.38-4.03,11.59-2.08,19.45,6.51,27.72,10.62,10.2,24.8,17.64,34.37,28.65,6.87,7.91,10.49,17.41,4.67,30.19"/>
      <path class="cls-6" d="m247.58,180.91c.1-1.55-.25-3.33-1.02-5.14-1.44-3.43-4.11-6.67-7.33-9.26-10.03-8.04-16.21-13.34-25.18-23.91,8.94,22.21,26.53,22.51,33.53,38.31"/>
      <g class="cls-5">
        <path class="cls-2" d="m256.52,86.16c-11.44,8.78-25.65,20.85-18.95,35.08,5.54,11.77,23.21,22.72,33.27,30.86,18.09,14.63,31.88,26.34,13.66,49.27,14.98-14.2,21.1-30.58,6.68-47.63-3.99-4.71-8.73-9.12-14.18-13.24-10.27-7.78-25.12-16.41-25.22-30.96,8.8,13.53,16.55,17.03,28.47,25.7,11.07,8.04,18.37,17.34,22.08,27.83-.98-12.02-5.57-22.83-12.89-32.74-5.36-7.25-12.15-13.96-18.55-20.91-7.2-7.81-11.14-12.69-14.37-23.26"/>
      </g>
      <g class="cls-4">
        <path class="cls-8" d="m300.36,158.31c.74,1.56,1.4,3.15,1.97,4.76-.98-12.02-5.57-22.83-12.89-32.74-5.36-7.25-12.15-13.96-18.55-20.91-7.2-7.8-11.14-12.69-14.37-23.26.05,7.6,1.74,14.26,5.27,20.95,4.26,8.06,9.74,12.11,16.98,18.88,3.49,3.26,6.75,6.74,9.74,10.46,4.86,6.03,10.43,14.31,11.85,21.86Z"/>
      </g>
      <path class="cls-8" d="m238.3,104.77c-2.7,5.07-3.51,10.58-.74,16.46,5.54,11.77,23.22,22.72,33.27,30.86,5.17,4.18,9.98,8.13,13.8,12.15-11.08-15.36-29.31-24.1-39.58-38.67-4.37-6.2-7.01-13.12-6.75-20.81"/>
    </g>
    <g>
      <path class="cls-9" d="m93.6,201.47l3.07,97.89h46.71v-27.4l-33.42,6.29,3.35-72.01-19.71-4.76Z"/>
      <path class="cls-9" d="m152.47,298.09h18.87l2.8-50.76-23.22,1.12,1.54,49.64Zm-2.94-65.86l21.25.83v-21.95l-17.9-5.45-3.35,26.57Z"/>
      <path class="cls-9" d="m245.59,287.89l-12.02-10.07s8.25-3.78,8.95-15.8c.7-12.03-1.54-17.2-6.02-22.1-6.99-7.69-21.95-7.69-21.95-7.69,0,0-20.42-.56-27.27,6.57-6.71,6.99-7.41,19.3-7.13,28.11.14,8.67,1.26,20.28,3.5,24.9,1.68,3.35,6.71,6.99,21.95,7.41,16.08.42,14.54-9.93,14.54-9.93l11.46,10.07,13.98-11.46Zm-19.43-23.35c-.84,2.1-3.64,2.38-3.64,2.38l-5.59-8.25-10.77,7.83,5.87,8.11-.84.7c-.56.42-1.54.98-2.23,1.12-2.38.56-7.55,1.54-10.77.84-4.75-1.26-8.81-6.15-9.09-11.19-.28-6.01.7-12.44,3.35-15.24,2.52-2.79,6.3-6.43,14.96-6.57,8.54-.14,13.98-.42,17.2,2.1,4.9,4.06,2.8,14.82,1.54,18.18Z"/>
      <path class="cls-9" d="m255.24,237.68c-1.54.28-2.79,1.68-2.94,3.22-.7,10.35-2.23,46.15,4.9,51.88,8.25,6.71,12.17,6.99,24.19,6.99s23.35-.28,29.79-6.15c6.43-5.87,9.79-52.16,1.68-59.29-6.15-5.59-16.36,2.38-20.56,6.15-.56.42-1.11,1.54-1.11,2.38,0,.42.14,1.12.42,1.54,2.94,5.74,10.9,21.26,11.74,27.97.98,8.11-3.63,11.18-15.8,10.77-12.3-.42-14.82.28-16.92-4.06-2.24-4.47,7.27-26.15,5.31-42.79-.14-.98-.98-1.67-1.95-1.67h-.28l-18.46,3.07Z"/>
      <path class="cls-9" d="m326.7,298.09h18.87l2.8-50.76-23.22,1.12,1.54,49.64Zm-2.94-65.86l21.25.83v-21.95l-17.9-5.45-3.35,26.57Z"/>
      <path class="cls-9" d="m391.29,204.4l1.12,28.53s-11.33,4.06-17.34,5.59c-5.87,1.4-14.12,6.15-18.46,10.49-2.24,2.38-2.8,11.18-2.24,21.26.56,10.07,4.19,21.82,7.55,25.59,3.5,3.92,27.97,3.5,27.97,3.5l21.67-.98c3.22-.7,5.87-3.91,5.87-7.13,0,0,0-.14-.14-.14l.98-89.77-26.99,3.07Zm17.62,73.84c-.14,7.83-7.55,11.61-10.91,11.74-4.19,0-10.07-2.51-13.14-5.31-3.78-3.91-2.51-14.96-2.51-14.96,1.26-7.41,4.9-23.22,10.77-23.22,4.19,0,11.46,7.7,13.56,13.01,2.1,5.31,2.52,10.9,2.24,18.74Z"/>
    </g>
    <g>
      <text class="cls-1" transform="translate(153.89 397.6)"><tspan x="0" y="0">l</tspan><tspan class="cls-3" x="27.48" y="0">ea</tspan><tspan x="116.11" y="0">ds</tspan></text>
      <text class="cls-1" transform="translate(155.89 399.6)"><tspan x="0" y="0">l</tspan><tspan class="cls-3" x="27.48" y="0">ea</tspan><tspan x="116.11" y="0">ds</tspan></text>
      <text class="cls-1" transform="translate(153.89 397.6)"><tspan x="0" y="0">l</tspan><tspan class="cls-3" x="27.48" y="0">ea</tspan><tspan x="116.11" y="0">ds</tspan></text>
    </g>
  </g>
</svg>