<?xml version="1.0" encoding="UTF-8"?>
<svg id="Layer_6" data-name="Layer 6" xmlns="http://www.w3.org/2000/svg" xmlns:xlink="http://www.w3.org/1999/xlink" viewBox="0 0 512 512">
  <defs>
    <style>
      .cls-1 {
        clip-path: url(#clippath-1);
      }

      .cls-2 {
        fill: #0098da;
      }

      .cls-2, .cls-3, .cls-4, .cls-5 {
        fill-rule: evenodd;
      }

      .cls-3 {
        fill: #034e8f;
      }

      .cls-4 {
        fill: #0d62ad;
      }

      .cls-6 {
        clip-path: url(#clippath);
      }

      .cls-7 {
        fill: none;
      }

      .cls-5 {
        fill: #007fb5;
      }
    </style>
    <clipPath id="clippath">
      <rect class="cls-7" x="171.29" y="6.84" width="272.26" height="463.7"/>
    </clipPath>
    <clipPath id="clippath-1">
      <rect class="cls-7" x="255.07" y="6.84" width="188.49" height="310.11"/>
    </clipPath>
  </defs>
  <path class="cls-4" d="m89.84,232.23c-20.53,36.24-26.94,75.37-16.36,118,24.9,100.22,136.35,190.67,236.87,140.79,55.47-27.49,77.39-94.87,39.27-147.04-20.89-28.61-54.29-52.69-90.86-75.59-47.04-28.63-115.54-74.31-108.45-137.3-27.19,29.53-45.68,63.51-24.16,101.36,16.5,29.07,47.53,55.69,86.72,80.96,16.8,12.38,33.13,25.25,44.97,42.4,33.41,48.32-4.91,81.02-53.94,75.46-48.57-5.51-72.27-29.21-82.87-62.48,18.9,15.27,38.45,29.42,61.49,35.45,37.99,9.95,48.08-13.58,37.17-39.51-5.78-13.69-16.42-26.64-29.32-36.98-40.03-32.15-64.74-53.26-100.52-95.53"/>
  <path class="cls-3" d="m332.21,476.76c38.67-32.4,50.04-88.16,17.43-132.78-20.89-28.61-54.32-52.69-90.89-75.59-47.04-28.63-115.52-74.31-108.45-137.3-16.09,46.28-8.32,77.69,26.02,110.69,42.4,40.74,99.04,70.47,137.25,114.42,27.43,31.58,41.89,69.51,18.65,120.56"/>
  <path class="cls-3" d="m223.73,385.24c.38-6.19-1.01-13.28-4.09-20.53-5.75-13.69-16.42-26.64-29.29-36.98-40.06-32.12-64.74-53.26-100.54-95.5,35.7,88.71,105.94,89.88,133.92,153.01"/>
  <g class="cls-6">
    <path class="cls-2" d="m259.4,6.84c-45.7,35.07-102.43,83.25-75.67,140.09,22.12,47.01,92.69,90.75,132.86,123.26,72.24,58.41,127.3,105.18,54.54,196.78,59.83-56.69,84.26-122.11,26.67-190.23-15.93-18.82-34.88-36.41-56.61-52.88-41.01-31.06-100.33-65.53-100.71-123.64,35.15,54.05,66.1,68.01,113.72,102.62,44.2,32.1,73.36,69.27,88.19,111.15-3.9-47.99-22.25-91.19-51.49-130.73-21.41-28.96-48.54-55.77-74.09-83.5-28.74-31.2-44.48-50.69-57.4-92.91"/>
  </g>
  <g class="cls-1">
    <path class="cls-5" d="m434.5,294.98c2.97,6.24,5.59,12.57,7.88,19.01-3.9-47.99-22.25-91.19-51.49-130.73-21.41-28.96-48.54-55.77-74.09-83.5-28.74-31.17-44.48-50.69-57.4-92.91.22,30.35,6.95,56.97,21.05,83.66,17.02,32.18,38.89,48.35,67.79,75.4,13.93,13.03,26.94,26.92,38.91,41.78,19.42,24.08,41.64,57.13,47.34,87.29Z"/>
  </g>
  <path class="cls-5" d="m186.67,81.18c-10.8,20.23-14.02,42.24-2.97,65.75,22.12,47.01,92.72,90.75,132.89,123.26,20.64,16.69,39.87,32.45,55.11,48.54-44.26-61.33-117.04-96.26-158.08-154.43-17.45-24.76-28.01-52.41-26.94-83.12"/>
</svg>