<?xml version="1.0" encoding="UTF-8"?>
<svg id="Layer_3" data-name="Layer 3" xmlns="http://www.w3.org/2000/svg" xmlns:xlink="http://www.w3.org/1999/xlink" viewBox="0 0 1523.35 351.86">
  <defs>
    <style>
      .cls-1, .cls-2, .cls-3 {
        fill: #0d62ad;
      }

      .cls-4 {
        letter-spacing: 0em;
      }

      .cls-5 {
        fill: #063d66;
      }

      .cls-6 {
        clip-path: url(#clippath-1);
      }

      .cls-7, .cls-8, .cls-3, .cls-9 {
        fill-rule: evenodd;
      }

      .cls-7, .cls-10 {
        fill: #0098da;
      }

      .cls-8, .cls-11 {
        fill: #034e8f;
      }

      .cls-2, .cls-10 {
        font-family: Bely-BoldItalic, Bely;
        font-size: 265.38px;
        font-style: italic;
        font-weight: 700;
      }

      .cls-12 {
        clip-path: url(#clippath);
      }

      .cls-13 {
        fill: none;
      }

      .cls-9 {
        fill: #007fb5;
      }
    </style>
    <clipPath id="clippath">
      <rect class="cls-13" x="74.31" y=".18" width="192.05" height="327.09"/>
    </clipPath>
    <clipPath id="clippath-1">
      <rect class="cls-13" x="133.4" y=".18" width="132.96" height="218.75"/>
    </clipPath>
  </defs>
  <g>
    <path class="cls-3" d="m16.85,159.16c-14.48,25.56-19,53.17-11.54,83.23,17.56,70.69,96.18,134.5,167.08,99.31,39.13-19.39,54.59-66.92,27.7-103.72-14.73-20.18-38.3-37.16-64.09-53.32-33.18-20.2-81.5-52.42-76.5-96.85-19.18,20.83-32.22,44.8-17.04,71.5,11.64,20.51,33.53,39.28,61.17,57.11,11.85,8.73,23.37,17.81,31.72,29.91,23.56,34.09-3.46,57.15-38.05,53.23-34.26-3.89-50.97-20.6-58.46-44.07,13.33,10.77,27.12,20.76,43.38,25.01,26.8,7.02,33.91-9.58,26.22-27.87-4.08-9.66-11.58-18.79-20.68-26.08-28.24-22.68-45.67-37.57-70.9-67.38"/>
    <path class="cls-8" d="m187.82,331.65c27.28-22.85,35.3-62.19,12.29-93.66-14.73-20.18-38.32-37.16-64.11-53.32-33.18-20.2-81.48-52.42-76.5-96.85-11.35,32.64-5.87,54.8,18.35,78.08,29.91,28.74,69.86,49.71,96.81,80.71,19.35,22.28,29.55,49.03,13.16,85.04"/>
    <path class="cls-8" d="m111.3,267.09c.27-4.37-.71-9.37-2.89-14.48-4.06-9.66-11.58-18.79-20.66-26.08-28.26-22.66-45.67-37.57-70.92-67.36,25.18,62.57,74.73,63.4,94.47,107.93"/>
    <g class="cls-12">
      <path class="cls-7" d="m136.46.18c-32.24,24.74-72.25,58.73-53.38,98.81,15.6,33.16,65.38,64.02,93.72,86.95,50.96,41.2,89.79,74.19,38.47,138.81,42.2-39.99,59.44-86.14,18.81-134.19-11.23-13.27-24.6-25.68-39.93-37.3-28.93-21.91-70.77-46.22-71.04-87.22,24.79,38.13,46.63,47.97,80.21,72.38,31.18,22.64,51.74,48.86,62.21,78.41-2.75-33.86-15.7-64.32-36.32-92.22-15.1-20.43-34.24-39.34-52.26-58.9C156.68,43.71,145.58,29.95,136.46.18"/>
    </g>
    <g class="cls-6">
      <path class="cls-9" d="m259.97,203.42c2.1,4.41,3.94,8.87,5.56,13.41-2.75-33.86-15.7-64.32-36.32-92.22-15.1-20.43-34.24-39.34-52.26-58.9C156.68,43.73,145.58,29.95,136.46.18c.15,21.41,4.91,40.18,14.85,59.02,12,22.7,27.43,34.11,47.82,53.19,9.83,9.19,19,18.99,27.45,29.47,13.7,16.99,29.37,40.3,33.39,61.57Z"/>
    </g>
    <path class="cls-9" d="m85.16,52.61c-7.62,14.27-9.89,29.8-2.1,46.38,15.6,33.16,65.4,64.02,93.74,86.95,14.56,11.77,28.12,22.89,38.88,34.24-31.22-43.26-82.56-67.9-111.51-108.93-12.31-17.47-19.76-36.97-19-58.63"/>
  </g>
  <g>
    <g>
      <g>
        <path class="cls-11" d="m312.74,79.11l6.24,198.64h94.78v-55.61l-67.82,12.76,6.8-146.14-40.01-9.66Z"/>
        <path class="cls-11" d="m432.2,275.2h38.3l5.68-103.01-47.11,2.27,3.13,100.74Zm-5.96-133.65l43.12,1.69v-44.55l-36.32-11.06-6.8,53.92Z"/>
        <path class="cls-11" d="m621.19,254.48l-24.4-20.43s16.74-7.66,18.17-32.07c1.41-24.42-3.13-34.91-12.21-44.84-14.19-15.6-44.55-15.6-44.55-15.6,0,0-41.43-1.14-55.34,13.33-13.62,14.19-15.03,39.16-14.47,57.04.29,17.6,2.55,41.16,7.09,50.52,3.41,6.8,13.62,14.18,44.55,15.03,32.63.85,29.52-20.15,29.52-20.15l23.27,20.43,28.38-23.27Zm-39.44-47.39c-1.7,4.25-7.39,4.82-7.39,4.82l-11.35-16.74-21.85,15.89,11.92,16.46-1.7,1.41c-1.14.85-3.12,1.98-4.53,2.27-4.82,1.14-15.33,3.12-21.85,1.7-9.64-2.56-17.88-12.49-18.44-22.71-.57-12.19,1.41-25.25,6.8-30.93,5.11-5.67,12.78-13.05,30.36-13.33,17.32-.29,28.38-.86,34.91,4.25,9.94,8.23,5.68,30.08,3.13,36.89Z"/>
        <path class="cls-11" d="m640.76,152.6c-3.12.57-5.67,3.41-5.96,6.53-1.41,21.01-4.53,93.65,9.94,105.29,16.74,13.62,24.69,14.19,49.1,14.19s47.39-.57,60.44-12.49c13.05-11.92,19.86-105.85,3.41-120.32-12.49-11.35-33.2,4.82-41.72,12.49-1.14.85-2.26,3.12-2.26,4.82,0,.85.28,2.27.85,3.12,5.96,11.64,22.13,43.14,23.83,56.76,2,16.46-7.37,22.7-32.07,21.85-24.97-.86-30.08.57-34.34-8.23-4.55-9.08,14.76-53.07,10.78-86.84-.28-1.98-1.98-3.39-3.96-3.39h-.57l-37.47,6.24Z"/>
        <path class="cls-11" d="m785.77,275.2h38.3l5.68-103.01-47.11,2.27,3.13,100.74Zm-5.96-133.65l43.12,1.69v-44.55l-36.32-11.06-6.8,53.92Z"/>
        <path class="cls-11" d="m916.86,85.06l2.27,57.89s-22.99,8.23-35.18,11.35c-11.92,2.84-28.66,12.49-37.46,21.28-4.55,4.82-5.68,22.7-4.55,43.14,1.14,20.43,8.51,44.27,15.33,51.92,7.09,7.95,56.76,7.09,56.76,7.09l43.98-1.98c6.53-1.41,11.92-7.94,11.92-14.47,0,0,0-.29-.29-.29l2-182.18-54.78,6.24Zm35.76,149.84c-.29,15.89-15.33,23.56-22.14,23.83-8.51,0-20.43-5.1-26.67-10.78-7.66-7.94-5.1-30.36-5.1-30.36,2.55-15.03,9.94-47.11,21.85-47.11,8.51,0,23.27,15.62,27.52,26.4,4.25,10.78,5.11,22.13,4.55,38.02Z"/>
      </g>
      <g>
        <path class="cls-5" d="m314.74,81.11l6.24,198.64h94.78v-55.61l-67.82,12.76,6.8-146.14-40.01-9.66Z"/>
        <path class="cls-5" d="m434.2,277.2h38.3l5.68-103.01-47.11,2.27,3.13,100.74Zm-5.96-133.65l43.12,1.69v-44.55l-36.32-11.06-6.8,53.92Z"/>
        <path class="cls-5" d="m623.19,256.48l-24.4-20.43s16.74-7.66,18.17-32.07c1.41-24.42-3.13-34.91-12.21-44.84-14.19-15.6-44.55-15.6-44.55-15.6,0,0-41.43-1.14-55.34,13.33-13.62,14.19-15.03,39.16-14.47,57.04.29,17.6,2.55,41.16,7.09,50.52,3.41,6.8,13.62,14.18,44.55,15.03,32.63.85,29.52-20.15,29.52-20.15l23.27,20.43,28.38-23.27Zm-39.44-47.39c-1.7,4.25-7.39,4.82-7.39,4.82l-11.35-16.74-21.85,15.89,11.92,16.46-1.7,1.41c-1.14.85-3.12,1.98-4.53,2.27-4.82,1.14-15.33,3.12-21.85,1.7-9.64-2.56-17.88-12.49-18.44-22.71-.57-12.19,1.41-25.25,6.8-30.93,5.11-5.67,12.78-13.05,30.36-13.33,17.32-.29,28.38-.86,34.91,4.25,9.94,8.23,5.68,30.08,3.13,36.89Z"/>
        <path class="cls-5" d="m642.76,154.6c-3.12.57-5.67,3.41-5.96,6.53-1.41,21.01-4.53,93.65,9.94,105.29,16.74,13.62,24.69,14.19,49.1,14.19s47.39-.57,60.44-12.49c13.05-11.92,19.86-105.85,3.41-120.32-12.49-11.35-33.2,4.82-41.72,12.49-1.14.85-2.26,3.12-2.26,4.82,0,.85.28,2.27.85,3.12,5.96,11.64,22.13,43.14,23.83,56.76,2,16.46-7.37,22.7-32.07,21.85-24.97-.86-30.08.57-34.34-8.23-4.55-9.08,14.76-53.07,10.78-86.84-.28-1.98-1.98-3.39-3.96-3.39h-.57l-37.47,6.24Z"/>
        <path class="cls-5" d="m787.77,277.2h38.3l5.68-103.01-47.11,2.27,3.13,100.74Zm-5.96-133.65l43.12,1.69v-44.55l-36.32-11.06-6.8,53.92Z"/>
        <path class="cls-5" d="m918.86,87.06l2.27,57.89s-22.99,8.23-35.18,11.35c-11.92,2.84-28.66,12.49-37.46,21.28-4.55,4.82-5.68,22.7-4.55,43.14,1.14,20.43,8.51,44.27,15.33,51.92,7.09,7.95,56.76,7.09,56.76,7.09l43.98-1.98c6.53-1.41,11.92-7.94,11.92-14.47,0,0,0-.29-.29-.29l2-182.18-54.78,6.24Zm35.76,149.84c-.29,15.89-15.33,23.56-22.14,23.83-8.51,0-20.43-5.1-26.67-10.78-7.66-7.94-5.1-30.36-5.1-30.36,2.55-15.03,9.94-47.11,21.85-47.11,8.51,0,23.27,15.62,27.52,26.4,4.25,10.78,5.11,22.13,4.55,38.02Z"/>
      </g>
      <g>
        <path class="cls-1" d="m312.74,79.11l6.24,198.64h94.78v-55.61l-67.82,12.76,6.8-146.14-40.01-9.66Z"/>
        <path class="cls-1" d="m432.2,275.2h38.3l5.68-103.01-47.11,2.27,3.13,100.74Zm-5.96-133.65l43.12,1.69v-44.55l-36.32-11.06-6.8,53.92Z"/>
        <path class="cls-1" d="m621.19,254.48l-24.4-20.43s16.74-7.66,18.17-32.07c1.41-24.42-3.13-34.91-12.21-44.84-14.19-15.6-44.55-15.6-44.55-15.6,0,0-41.43-1.14-55.34,13.33-13.62,14.19-15.03,39.16-14.47,57.04.29,17.6,2.55,41.16,7.09,50.52,3.41,6.8,13.62,14.18,44.55,15.03,32.63.85,29.52-20.15,29.52-20.15l23.27,20.43,28.38-23.27Zm-39.44-47.39c-1.7,4.25-7.39,4.82-7.39,4.82l-11.35-16.74-21.85,15.89,11.92,16.46-1.7,1.41c-1.14.85-3.12,1.98-4.53,2.27-4.82,1.14-15.33,3.12-21.85,1.7-9.64-2.56-17.88-12.49-18.44-22.71-.57-12.19,1.41-25.25,6.8-30.93,5.11-5.67,12.78-13.05,30.36-13.33,17.32-.29,28.38-.86,34.91,4.25,9.94,8.23,5.68,30.08,3.13,36.89Z"/>
        <path class="cls-1" d="m640.76,152.6c-3.12.57-5.67,3.41-5.96,6.53-1.41,21.01-4.53,93.65,9.94,105.29,16.74,13.62,24.69,14.19,49.1,14.19s47.39-.57,60.44-12.49c13.05-11.92,19.86-105.85,3.41-120.32-12.49-11.35-33.2,4.82-41.72,12.49-1.14.85-2.26,3.12-2.26,4.82,0,.85.28,2.27.85,3.12,5.96,11.64,22.13,43.14,23.83,56.76,2,16.46-7.37,22.7-32.07,21.85-24.97-.86-30.08.57-34.34-8.23-4.55-9.08,14.76-53.07,10.78-86.84-.28-1.98-1.98-3.39-3.96-3.39h-.57l-37.47,6.24Z"/>
        <path class="cls-1" d="m785.77,275.2h38.3l5.68-103.01-47.11,2.27,3.13,100.74Zm-5.96-133.65l43.12,1.69v-44.55l-36.32-11.06-6.8,53.92Z"/>
        <path class="cls-1" d="m916.86,85.06l2.27,57.89s-22.99,8.23-35.18,11.35c-11.92,2.84-28.66,12.49-37.46,21.28-4.55,4.82-5.68,22.7-4.55,43.14,1.14,20.43,8.51,44.27,15.33,51.92,7.09,7.95,56.76,7.09,56.76,7.09l43.98-1.98c6.53-1.41,11.92-7.94,11.92-14.47,0,0,0-.29-.29-.29l2-182.18-54.78,6.24Zm35.76,149.84c-.29,15.89-15.33,23.56-22.14,23.83-8.51,0-20.43-5.1-26.67-10.78-7.66-7.94-5.1-30.36-5.1-30.36,2.55-15.03,9.94-47.11,21.85-47.11,8.51,0,23.27,15.62,27.52,26.4,4.25,10.78,5.11,22.13,4.55,38.02Z"/>
      </g>
    </g>
    <g>
      <text class="cls-10" transform="translate(1005.17 275.61)"><tspan x="0" y="0">l</tspan><tspan class="cls-4" x="69.53" y="0">ea</tspan><tspan x="293.78" y="0">ds</tspan></text>
      <text class="cls-2" transform="translate(1007.17 277.61)"><tspan x="0" y="0">l</tspan><tspan class="cls-4" x="69.53" y="0">ea</tspan><tspan x="293.78" y="0">ds</tspan></text>
      <text class="cls-10" transform="translate(1005.17 275.61)"><tspan x="0" y="0">l</tspan><tspan class="cls-4" x="69.53" y="0">ea</tspan><tspan x="293.78" y="0">ds</tspan></text>
    </g>
  </g>
</svg>